<svg xmlns="http://www.w3.org/2000/svg" width="26.828" height="21.306" viewBox="0 0 26.828 21.306">
  <g id="credit-card_1_" data-name="credit-card (1)" transform="translate(0.1 0.101)">
    <rect id="Rectangle_15074" data-name="Rectangle 15074" width="5.02" height="3.012" transform="translate(14.82 15.07)" fill="#9bc0ff"/>
    <rect id="Rectangle_15075" data-name="Rectangle 15075" width="21.084" height="3.012" transform="translate(0.764 9.046)" fill="#9bc0ff"/>
    <path id="Path_125258" data-name="Path 125258" d="M26.155,55.374a1.987,1.987,0,0,0-1.361-.7L6.042,53.107a2,2,0,0,0-2.159,1.82l-.377,3.539H2a2,2,0,0,0-2,2V72.2a2,2,0,0,0,2,2H20.817a2,2,0,0,0,2-2V70.3l.668.056q.084.007.168.007a2,2,0,0,0,1.992-1.834l.977-11.7a1.987,1.987,0,0,0-.466-1.458ZM2,59.506H20.817a.961.961,0,0,1,.96.96v1.07H1.04v-1.07a.961.961,0,0,1,.96-.96Zm-.96,3.07H21.777v2.158H1.04ZM20.817,73.164H2a.961.961,0,0,1-.96-.96V65.774H21.777V72.2a.961.961,0,0,1-.96.96Zm4.767-16.419-.977,11.7a.961.961,0,0,1-1.036.877l-.754-.063v-8.79a2,2,0,0,0-2-2H4.552l.366-3.435V55.02a.961.961,0,0,1,1.036-.877l18.752,1.566a.96.96,0,0,1,.877,1.036Z" transform="translate(0 -53.1)" stroke="#000" stroke-width="0.2"/>
    <path id="Path_125259" data-name="Path 125259" d="M276.156,326.532h-5.005a.52.52,0,0,0-.52.52v3.266a.52.52,0,0,0,.52.52h5.005a.52.52,0,0,0,.52-.52v-3.266A.52.52,0,0,0,276.156,326.532Zm-.52,3.266h-3.965v-2.225h3.965Z" transform="translate(-256.556 -312.311)" stroke="#000" stroke-width="0.2"/>
  </g>
</svg>
