<svg xmlns="http://www.w3.org/2000/svg" width="26.628" height="20.283" viewBox="0 0 26.628 20.283">
  <g id="Group_78007" data-name="Group 78007" transform="translate(-75.869 -881.863)">
    <circle id="Ellipse_9637" data-name="Ellipse 9637" cx="7.364" cy="7.364" r="7.364" transform="translate(87.373 886.409)" fill="#fdffc0"/>
    <g id="Group_78005" data-name="Group 78005" transform="translate(75.869 881.863)">
      <g id="rupee" transform="translate(16.208 8.959)">
        <path id="Path_123626" data-name="Path 123626" d="M8,9.291A.291.291,0,0,1,8.291,9H12.95a.291.291,0,0,1,0,.582H8.291A.291.291,0,0,1,8,9.291Z" transform="translate(-8 -7.544)" stroke="#000" stroke-width="0.5" fill-rule="evenodd"/>
        <path id="Path_123627" data-name="Path 123627" d="M8,4.291A.291.291,0,0,1,8.291,4H12.95a.291.291,0,0,1,0,.582H8.291A.291.291,0,0,1,8,4.291Z" transform="translate(-8 -4)" stroke="#000" stroke-width="0.5" fill-rule="evenodd"/>
        <path id="Path_123628" data-name="Path 123628" d="M9.31,4.291A.291.291,0,0,1,9.6,4a2.184,2.184,0,0,1,0,4.368H9.044l2.646,2.405a.291.291,0,1,1-.392.431L8.1,8.292a.291.291,0,0,1,.2-.507H9.6a1.6,1.6,0,1,0,0-3.2.291.291,0,0,1-.291-.291Z" transform="translate(-8 -4)" stroke="#000" stroke-width="0.5" fill-rule="evenodd"/>
      </g>
      <g id="coin">
        <path id="Path_124409" data-name="Path 124409" d="M18.567,65.161a8.031,8.031,0,0,0-2.444.379v-.119a1.3,1.3,0,0,0-1.04-1.274V62.3a1.3,1.3,0,0,0-1.3-1.3H1.82a1.3,1.3,0,0,0-1.3,1.3v2.08a1.3,1.3,0,0,0,1.04,1.274v1.586H1.3a1.3,1.3,0,0,0-1.3,1.3v2.08A1.3,1.3,0,0,0,1.04,71.9v1.846a1.3,1.3,0,0,0,1.04,1.274V76.6H1.3A1.3,1.3,0,0,0,0,77.9v2.08a1.3,1.3,0,0,0,1.3,1.3H13.262A1.3,1.3,0,0,0,14.543,80.2a8.06,8.06,0,1,0,4.024-15.044Zm0,14.562a6.5,6.5,0,1,1,6.5-6.5A6.508,6.508,0,0,1,18.567,79.723Zm-17.007,0v-1.56H12.2a8.127,8.127,0,0,0,.8.886v.674Zm1.3-15.6H2.08V62.56H13.522v1.56Zm.26,1.56H14.562v.547a8.1,8.1,0,0,0-1.394,1.013H3.12ZM1.56,70.361V68.8H11.829a8.042,8.042,0,0,0-.8,1.56H1.56Zm9.051,1.56a8.082,8.082,0,0,0-.105,1.3c0,.087,0,.174,0,.26H2.6v-1.56Zm-6.97,3.12h7.072a8,8,0,0,0,.537,1.56H3.641Z" transform="translate(0 -61)"/>
      </g>
    </g>
  </g>
</svg>
