<svg id="gift-card" xmlns="http://www.w3.org/2000/svg" width="25.426" height="21.104" viewBox="0 0 25.426 21.104">
  <rect id="Rectangle_15808" data-name="Rectangle 15808" width="6.883" height="13.767" transform="translate(0.667 6.031)" fill="#e8bfff"/>
  <path id="Path_132951" data-name="Path 132951" d="M23.687,48.223H14.842A3.1,3.1,0,0,0,9.58,44.932l-1.933,2.5-1.933-2.5A3.1,3.1,0,1,0,.7,48.569,1.737,1.737,0,0,0,0,49.961V62.872A1.74,1.74,0,0,0,1.738,64.61H23.687a1.74,1.74,0,0,0,1.738-1.738V49.961A1.74,1.74,0,0,0,23.687,48.223Zm.248,14.649a.249.249,0,0,1-.248.248H8.392V50.844l1.5,2.087a.745.745,0,1,0,1.208-.871L9.414,49.713H23.687a.249.249,0,0,1,.248.248ZM3.1,45a1.607,1.607,0,0,1,1.369.76q.02.031.042.061l1.862,2.407H3.1A1.614,1.614,0,0,1,3.1,45Zm7.718.76A1.614,1.614,0,1,1,12.2,48.224H8.917l1.862-2.407Q10.8,45.787,10.822,45.756ZM1.49,62.872V49.961a.249.249,0,0,1,.248-.248h4.2L4.47,51.871a.745.745,0,1,0,1.23.84L6.9,50.95V63.121H1.738A.249.249,0,0,1,1.49,62.872Z" transform="translate(0 -43.506)"/>
  <path id="Path_132952" data-name="Path 132952" d="M261.745,229.984h3.724a.745.745,0,0,0,0-1.49h-3.724a.745.745,0,1,0,0,1.49Z" transform="translate(-248.039 -219.308)"/>
  <path id="Path_132953" data-name="Path 132953" d="M268.449,288.494h-6.7a.745.745,0,1,0,0,1.49h6.7a.745.745,0,0,0,0-1.49Z" transform="translate(-248.039 -276.328)"/>
  <path id="Path_132954" data-name="Path 132954" d="M268.449,348.494h-6.7a.745.745,0,1,0,0,1.49h6.7a.745.745,0,0,0,0-1.49Z" transform="translate(-248.039 -333.349)"/>
</svg>
