<svg xmlns="http://www.w3.org/2000/svg" width="23.133" height="23.14" viewBox="0 0 23.133 23.14">
  <g id="Group_78009" data-name="Group 78009" transform="translate(-75.666 -679.958)">
    <rect id="Rectangle_18623" data-name="Rectangle 18623" width="16.027" height="9.616" transform="translate(79.218 689.458)" fill="#ffd2f6"/>
    <path id="bank" d="M23.3,11.829a1.64,1.64,0,0,0,1.638-1.638V9.041A1.635,1.635,0,0,0,24.071,7.6L13.855,2.1a.819.819,0,0,0-.776,0L2.862,7.6A1.636,1.636,0,0,0,2,9.041v1.149a1.64,1.64,0,0,0,1.638,1.638h.819v8.19H3.638A1.64,1.64,0,0,0,2,21.657V23.3a1.64,1.64,0,0,0,1.638,1.638H23.3A1.64,1.64,0,0,0,24.933,23.3V21.657A1.64,1.64,0,0,0,23.3,20.019h-.819v-8.19ZM3.638,9.041,13.467,3.75,23.3,9.041v1.149H3.638ZM14.286,20.019v-8.19h2.457v8.19Zm-4.1,0v-8.19h2.457v8.19Zm-4.1-8.19H8.552v8.19H6.1ZM23.3,23.3H3.638V21.657H23.3V23.3Zm-2.457-3.276H18.382v-8.19h2.457Z" transform="translate(73.766 678.064)" stroke="#f9f8fa" stroke-width="0.2"/>
  </g>
</svg>
