<svg id="credit-card" xmlns="http://www.w3.org/2000/svg" width="25.339" height="22.95" viewBox="0 0 25.339 22.95">
  <rect id="Rectangle_14836" data-name="Rectangle 14836" width="19.079" height="7.155" transform="translate(1.341 7.372)" fill="#b9f8ff"/>
  <path id="Path_123611" data-name="Path 123611" d="M25.3,37.23,23.373,26.321a2.733,2.733,0,0,0-3.162-2.214l-16.5,2.909A2.732,2.732,0,0,0,1.5,30.178l.141.8A2.733,2.733,0,0,0,0,33.483v10.8a2.732,2.732,0,0,0,2.729,2.729H19.105a2.732,2.732,0,0,0,2.729-2.729V40.612l1.248-.22A2.729,2.729,0,0,0,25.3,37.23Zm-1.672,1.185a1.233,1.233,0,0,1-.8.51l-.989.174V33.482a2.732,2.732,0,0,0-2.729-2.729H3.114l-.147-.834a1.241,1.241,0,0,1,1.006-1.437l16.5-2.909a1.24,1.24,0,0,1,1.437,1.006l1.923,10.908A1.233,1.233,0,0,1,23.625,38.415Zm-4.52,7.112H2.729a1.242,1.242,0,0,1-1.241-1.241V39H20.346v5.291a1.242,1.242,0,0,1-1.241,1.241ZM2.729,32.242H19.105a1.242,1.242,0,0,1,1.241,1.241v.648H1.489v-.648A1.242,1.242,0,0,1,2.729,32.242Zm17.617,3.377v1.888H1.489V35.619Z" transform="translate(0 -24.066)"/>
  <path id="Path_123612" data-name="Path 123612" d="M65.423,396.3H62.046a.744.744,0,0,0,0,1.489h3.377a.744.744,0,0,0,0-1.489Z" transform="translate(-58.26 -377.833)"/>
</svg>
