<svg id="smartphone" xmlns="http://www.w3.org/2000/svg" width="22.849" height="22.849" viewBox="0 0 22.849 22.849">
  <rect id="Rectangle_15806" data-name="Rectangle 15806" width="15.242" height="2.858" rx="1.429" transform="translate(0.469 19.514)" fill="#ffc6c6"/>
  <rect id="Rectangle_15807" data-name="Rectangle 15807" width="14.29" height="2.858" rx="1.429" transform="translate(8.09 6.177)" fill="#ffc6c6"/>
  <path id="Path_132955" data-name="Path 132955" d="M138.5,60.669a.669.669,0,0,0-.669-.669h-3.659a.669.669,0,0,0,0,1.339h3.659A.669.669,0,0,0,138.5,60.669Z" transform="translate(-127.542 -57.322)"/>
  <path id="Path_132956" data-name="Path 132956" d="M20.84,5.623H16.913V2.454A2.457,2.457,0,0,0,14.459,0h-12A2.457,2.457,0,0,0,0,2.454v17.94a2.457,2.457,0,0,0,2.454,2.454h12a2.457,2.457,0,0,0,2.454-2.454V17.226H20.84a2.01,2.01,0,0,0,2.008-2.008V7.631A2.01,2.01,0,0,0,20.84,5.623Zm0,10.264H9.684a.67.67,0,0,1-.669-.669v-2.9h12.5v2.9A.67.67,0,0,1,20.84,15.887Zm.669-8.256V8.3H9.014V7.631a.67.67,0,0,1,.669-.669H20.84A.67.67,0,0,1,21.51,7.631Zm-12.5,3.347V9.639h12.5v1.339ZM14.459,21.51h-12a1.117,1.117,0,0,1-1.116-1.116v-.223H15.574v.223A1.117,1.117,0,0,1,14.459,21.51Zm1.116-2.678H1.339V2.454A1.117,1.117,0,0,1,2.454,1.339h12a1.117,1.117,0,0,1,1.116,1.116V5.623H9.684A2.01,2.01,0,0,0,7.676,7.631v7.586a2.01,2.01,0,0,0,2.008,2.008h5.891Z"/>
  <path id="Path_132957" data-name="Path 132957" d="M234.454,306h-1.785a.669.669,0,0,0,0,1.339h1.785a.669.669,0,1,0,0-1.339Z" transform="translate(-221.647 -292.344)"/>
</svg>
