<svg id="wallet" xmlns="http://www.w3.org/2000/svg" width="22.769" height="22.758" viewBox="0 0 22.769 22.758">
  <path id="Path_123621" data-name="Path 123621" d="M.366,3.631,8.983.453l1.283,2.169,5.762.55V6.38H0Z" transform="translate(2.302 0.253)" fill="#d2ffcd"/>
  <path id="Path_123620" data-name="Path 123620" d="M21.434,11.021V8.337a2.448,2.448,0,0,0-2.357-2.444V4.246a1.558,1.558,0,0,0-1.556-1.556H13.236l-.553-1.538a1.556,1.556,0,0,0-2-.936L2.91,3.046a1.557,1.557,0,0,0-.929,2l.312.853A2.449,2.449,0,0,0,0,8.337v12.1a2.449,2.449,0,0,0,2.446,2.446H18.989a2.449,2.449,0,0,0,2.446-2.446V17.659a1.559,1.559,0,0,0,1.334-1.54V12.562A1.559,1.559,0,0,0,21.434,11.021Zm0,5.1a.223.223,0,0,1-.222.222H17.654a2,2,0,1,1,0-4h3.558a.223.223,0,0,1,.222.222ZM3.234,4.585A.222.222,0,0,1,3.366,4.3l7.776-2.83a.222.222,0,0,1,.285.134l.391,1.086h-.3A1.558,1.558,0,0,0,9.961,4.246V5.891H3.712Zm14.51-.339V5.891H11.3V4.246a.223.223,0,0,1,.222-.222h6A.223.223,0,0,1,17.743,4.246Zm1.245,17.3H2.446a1.113,1.113,0,0,1-1.112-1.112V8.337A1.113,1.113,0,0,1,2.446,7.225H18.989A1.113,1.113,0,0,1,20.1,8.337v2.668H17.654a3.335,3.335,0,1,0,0,6.67H20.1v2.757A1.113,1.113,0,0,1,18.989,21.544Z" transform="translate(0 -0.121)"/>
  <ellipse id="Ellipse_9406" data-name="Ellipse 9406" cx="0.667" cy="0.667" rx="0.667" ry="0.667" transform="translate(16.987 13.552)"/>
</svg>
